<svg width="20" height="20" viewBox="0 0 20 20" fill="none" xmlns="http://www.w3.org/2000/svg">
<path d="M6.66671 5.83366H13.3334M6.66671 9.16699H10.8334M10.8334 17.917V16.5003C10.8334 15.1002 10.8334 14.4001 11.1059 13.8653C11.3455 13.3949 11.728 13.0125 12.1984 12.7728C12.7332 12.5003 13.4332 12.5003 14.8334 12.5003H16.25M16.6667 11.6768V5.66699C16.6667 4.26686 16.6667 3.5668 16.3942 3.03202C16.1545 2.56161 15.7721 2.17916 15.3017 1.93948C14.7669 1.66699 14.0668 1.66699 12.6667 1.66699H7.33337C5.93324 1.66699 5.23318 1.66699 4.6984 1.93948C4.22799 2.17916 3.84554 2.56161 3.60586 3.03202C3.33337 3.5668 3.33337 4.26686 3.33337 5.66699V14.3337C3.33337 15.7338 3.33337 16.4339 3.60586 16.9686C3.84554 17.439 4.22799 17.8215 4.6984 18.0612C5.23318 18.3337 5.93324 18.3337 7.33337 18.3337H10.0099C10.6213 18.3337 10.9271 18.3337 11.2148 18.2646C11.4699 18.2033 11.7137 18.1023 11.9374 17.9653C12.1897 17.8107 12.4059 17.5945 12.8383 17.1621L15.4951 14.5052C15.9275 14.0729 16.1437 13.8567 16.2983 13.6044C16.4354 13.3807 16.5364 13.1368 16.5976 12.8817C16.6667 12.594 16.6667 12.2883 16.6667 11.6768Z" stroke="white" stroke-width="2" stroke-linecap="round"/>
</svg>
