<svg width="20" height="20" viewBox="0 0 20 20" fill="none" xmlns="http://www.w3.org/2000/svg">
<path d="M9.99992 6.66634C10.9204 6.66634 11.6666 5.92015 11.6666 4.99967C11.6666 4.0792 10.9204 3.33301 9.99992 3.33301C9.07944 3.33301 8.33325 4.0792 8.33325 4.99967C8.33325 5.92015 9.07944 6.66634 9.99992 6.66634Z" fill="white"/>
<path d="M9.99992 11.6663C10.9204 11.6663 11.6666 10.9201 11.6666 9.99967C11.6666 9.0792 10.9204 8.33301 9.99992 8.33301C9.07944 8.33301 8.33325 9.0792 8.33325 9.99967C8.33325 10.9201 9.07944 11.6663 9.99992 11.6663Z" fill="white"/>
<path d="M9.99992 16.6663C10.9204 16.6663 11.6666 15.9201 11.6666 14.9997C11.6666 14.0792 10.9204 13.333 9.99992 13.333C9.07944 13.333 8.33325 14.0792 8.33325 14.9997C8.33325 15.9201 9.07944 16.6663 9.99992 16.6663Z" fill="white"/>
</svg>
