<svg width="39" height="22" viewBox="0 0 39 22" fill="none" xmlns="http://www.w3.org/2000/svg">
<path d="M18.6427 6.9749H22.3999L16.9218 21.5059H14.5413L11.1283 12.8454L7.85862 21.5059H5.50677L0 6.9749H3.58514L6.85478 15.2285L9.95234 6.9749H12.3042L15.5738 15.2285L18.6427 6.9749Z" fill="white"/>
<path d="M31.1701 18.5416C33.5506 18.5416 35.6156 16.6816 35.6156 14.1823C35.6156 11.7992 33.7227 9.91017 31.3421 9.91017C28.7609 9.91017 26.8966 11.7992 26.8966 14.1823C26.8966 16.6816 28.9329 18.5416 31.1701 18.5416ZM23.4835 14.1823V0H26.8966V7.8177C28.2446 6.9749 29.6213 6.42272 31.3421 6.42272C35.6156 6.42272 39 9.91017 39 14.1823C39 18.5416 35.4435 22 31.1701 22C27.04 22 23.4835 18.5416 23.4835 14.1823Z" fill="white"/>
</svg>
